<?xml version="1.0" encoding="UTF-8" standalone="no"?>
<svg xmlns="http://www.w3.org/2000/svg" viewBox="0 0 256 256" fill="none">
  <mask id="mask0" mask-type="alpha" maskUnits="userSpaceOnUse" x="0" y="0" width="256" height="256">
    <path fill="#fff" d="M0 0h256v256H0z" />
  </mask>
  <g mask="url(#mask0)">
    <path d="M181.534 254.252a15.934 15.934 0 0012.7-.488l52.706-25.361a16.002 16.002 0 009.06-14.42V42.018c0-6.15-3.522-11.754-9.06-14.42L194.234 2.238a15.939 15.939 0 00-18.185 3.097l-100.9 92.052-43.95-33.361a10.655 10.655 0 00-13.614.605L3.49 77.453c-4.648 4.227-4.653 11.54-.011 15.774L41.593 128 3.478 162.773c-4.642 4.235-4.637 11.547.011 15.775l14.097 12.822a10.655 10.655 0 0013.613.606l43.95-33.362 100.9 92.053a15.915 15.915 0 005.485 3.585zm10.505-184.367L115.479 128l76.56 58.115V69.885z" fill="#007ACC"/>
  </g>
</svg>